<mxfile host="app.diagrams.net" modified="2023-05-11T00:39:02.003Z" agent="Mozilla/5.0 (Windows NT 10.0; Win64; x64) AppleWebKit/537.36 (KHTML, like Gecko) Chrome/113.0.0.0 Safari/537.36 Edg/113.0.1774.35" version="21.2.9" etag="9n1t6e_N8pe08Tk01rcK" type="github">
  <diagram name="Page-1" id="-WJC_pMH1fh79fegVLgE">
    <mxGraphModel>
      <root>
        <mxCell id="0" />
        <mxCell id="1" parent="0" />
      </root>
    </mxGraphModel>
  </diagram>
</mxfile>
